<svg width="177" height="73" viewBox="0 0 177 73" fill="none" xmlns="http://www.w3.org/2000/svg">
<path d="M29.3586 36.6419H50.9543V50.9541H1.04575V30.4178L15.7173 15.6924V50.3333L29.3586 36.6419Z" fill="#FF4C00" stroke="#FF4C00" stroke-width="0.5" stroke-miterlimit="10"/>
<path d="M15.7173 15.5142H1.12442L15.5398 1.0459H15.7173V15.5142Z" fill="#FF4C00" stroke="#FF4C00" stroke-width="0.5" stroke-miterlimit="10"/>
<path d="M50.9542 1.0459V15.1506L50.5919 15.5142H16.0796L30.495 1.0459H50.9542Z" fill="#FF4C00" stroke="#FF4C00" stroke-width="0.5" stroke-miterlimit="10"/>
<path d="M69.9729 46.4883C68.6933 46.4883 67.5017 46.2758 66.3981 45.8507C65.3105 45.4094 64.3588 44.7964 63.5431 44.0117C62.7434 43.2107 62.1196 42.2708 61.6718 41.1919C61.2239 40.113 61 38.936 61 37.661C61 36.3859 61.2239 35.209 61.6718 34.1301C62.1196 33.0512 62.7514 32.1194 63.5671 31.3348C64.3828 30.5338 65.3345 29.9208 66.4221 29.4957C67.5097 29.0544 68.7013 28.8337 69.9969 28.8337C71.3724 28.8337 72.6279 29.0789 73.7635 29.5693C74.8991 30.0434 75.8588 30.7544 76.6425 31.7026L74.6272 33.6397C74.0194 32.9694 73.3397 32.4709 72.5879 32.1439C71.8362 31.8006 71.0205 31.629 70.1408 31.629C69.2611 31.629 68.4534 31.7761 67.7177 32.0704C66.9979 32.3646 66.3661 32.7814 65.8223 33.3209C65.2945 33.8603 64.8786 34.4979 64.5748 35.2335C64.2869 35.9691 64.1429 36.7783 64.1429 37.661C64.1429 38.5437 64.2869 39.3529 64.5748 40.0885C64.8786 40.8241 65.2945 41.4616 65.8223 42.0011C66.3661 42.5405 66.9979 42.9574 67.7177 43.2516C68.4534 43.5458 69.2611 43.693 70.1408 43.693C71.0205 43.693 71.8362 43.5295 72.5879 43.2026C73.3397 42.8593 74.0194 42.3443 74.6272 41.6578L76.6425 43.6194C75.8588 44.5512 74.8991 45.2623 73.7635 45.7527C72.6279 46.2431 71.3644 46.4883 69.9729 46.4883Z" fill="white"/>
<path d="M81.5141 46.2431V35.0128L82.2099 35.7484H77.0037V33.1493H88.9995V35.7484H83.8173L84.5131 35.0128V46.2431H81.5141Z" fill="white"/>
<path d="M98.2764 46.4147C97.2368 46.4147 96.2851 46.1695 95.4214 45.6791C94.5737 45.1887 93.8939 44.4531 93.3821 43.4723C92.8863 42.4751 92.6384 41.2164 92.6384 39.6962C92.6384 38.1596 92.8783 36.9009 93.3581 35.92C93.854 34.9392 94.5257 34.2118 95.3734 33.7377C96.2211 33.2473 97.1888 33.0021 98.2764 33.0021C99.54 33.0021 100.652 33.28 101.611 33.8358C102.587 34.3916 103.355 35.1681 103.914 36.1652C104.49 37.1624 104.778 38.3394 104.778 39.6962C104.778 41.0529 104.49 42.2381 103.914 43.2516C103.355 44.2488 102.587 45.0252 101.611 45.581C100.652 46.1368 99.54 46.4147 98.2764 46.4147ZM91.1749 51V33.1493H94.0299V36.2388L93.9339 39.7207L94.1738 43.2026V51H91.1749ZM97.9405 43.791C98.6603 43.791 99.3 43.6276 99.8598 43.3006C100.436 42.9737 100.891 42.4996 101.227 41.8785C101.563 41.2573 101.731 40.5299 101.731 39.6962C101.731 38.8461 101.563 38.1187 101.227 37.5139C100.891 36.8927 100.436 36.4186 99.8598 36.0917C99.3 35.7647 98.6603 35.6013 97.9405 35.6013C97.2208 35.6013 96.573 35.7647 95.9972 36.0917C95.4214 36.4186 94.9656 36.8927 94.6297 37.5139C94.2938 38.1187 94.1259 38.8461 94.1259 39.6962C94.1259 40.5299 94.2938 41.2573 94.6297 41.8785C94.9656 42.4996 95.4214 42.9737 95.9972 43.3006C96.573 43.6276 97.2208 43.791 97.9405 43.791Z" fill="white"/>
<path d="M113.473 46.4147C112.161 46.4147 110.994 46.1286 109.97 45.5565C108.946 44.968 108.139 44.167 107.547 43.1535C106.955 42.14 106.659 40.9876 106.659 39.6962C106.659 38.3884 106.955 37.236 107.547 36.2388C108.139 35.2253 108.946 34.4325 109.97 33.8603C110.994 33.2882 112.161 33.0021 113.473 33.0021C114.8 33.0021 115.976 33.2882 117 33.8603C118.039 34.4325 118.847 35.2171 119.423 36.2143C120.015 37.2114 120.31 38.3721 120.31 39.6962C120.31 40.9876 120.015 42.14 119.423 43.1535C118.847 44.167 118.039 44.968 117 45.5565C115.976 46.1286 114.8 46.4147 113.473 46.4147ZM113.473 43.791C114.209 43.791 114.864 43.6276 115.44 43.3006C116.016 42.9737 116.464 42.4996 116.784 41.8785C117.12 41.2573 117.288 40.5299 117.288 39.6962C117.288 38.8461 117.12 38.1187 116.784 37.5139C116.464 36.8927 116.016 36.4186 115.44 36.0917C114.864 35.7647 114.217 35.6013 113.497 35.6013C112.761 35.6013 112.105 35.7647 111.53 36.0917C110.97 36.4186 110.522 36.8927 110.186 37.5139C109.85 38.1187 109.682 38.8461 109.682 39.6962C109.682 40.5299 109.85 41.2573 110.186 41.8785C110.522 42.4996 110.97 42.9737 111.53 43.3006C112.105 43.6276 112.753 43.791 113.473 43.791Z" fill="white"/>
<path d="M123.273 46.2431V33.1493H126.272V41.7804L133.35 33.1493H136.085V46.2431H133.086V37.6119L126.032 46.2431H123.273ZM129.487 31.6045C128.207 31.6045 127.224 31.3021 126.536 30.6972C125.848 30.076 125.496 29.177 125.48 28H127.472C127.488 28.5885 127.663 29.0544 127.999 29.3977C128.351 29.7409 128.839 29.9126 129.463 29.9126C130.071 29.9126 130.55 29.7409 130.902 29.3977C131.27 29.0544 131.462 28.5885 131.478 28H133.517C133.501 29.177 133.142 30.076 132.438 30.6972C131.75 31.3021 130.766 31.6045 129.487 31.6045Z" fill="white"/>
<path d="M142.201 46.2431V30.9915L142.944 31.7761H136.659V29.0789H150.862V31.7761H144.576L145.296 30.9915V46.2431H142.201Z" fill="white"/>
<path d="M160.31 46.2431V43.5949L160.142 43.0309V38.3966C160.142 37.4975 159.878 36.8028 159.35 36.3124C158.822 35.8056 158.022 35.5522 156.951 35.5522C156.231 35.5522 155.519 35.6667 154.815 35.8955C154.128 36.1244 153.544 36.4431 153.064 36.8518L151.888 34.6205C152.576 34.081 153.392 33.6805 154.336 33.419C155.295 33.1411 156.287 33.0021 157.311 33.0021C159.166 33.0021 160.597 33.4598 161.605 34.3753C162.629 35.2743 163.141 36.672 163.141 38.5682V46.2431H160.31ZM156.279 46.4147C155.319 46.4147 154.48 46.2512 153.76 45.9243C153.04 45.581 152.48 45.1151 152.08 44.5267C151.697 43.9218 151.505 43.2434 151.505 42.4915C151.505 41.7559 151.673 41.0938 152.008 40.5053C152.36 39.9168 152.928 39.451 153.712 39.1077C154.496 38.7644 155.535 38.5927 156.831 38.5927H160.549V40.6279H157.047C156.023 40.6279 155.335 40.7996 154.983 41.1429C154.632 41.4698 154.456 41.8785 154.456 42.3689C154.456 42.9247 154.671 43.366 155.103 43.693C155.535 44.0199 156.135 44.1834 156.903 44.1834C157.638 44.1834 158.294 44.0117 158.87 43.6684C159.462 43.3252 159.886 42.8184 160.142 42.1482L160.645 43.9872C160.358 44.7555 159.838 45.3522 159.086 45.7772C158.35 46.2022 157.415 46.4147 156.279 46.4147Z" fill="white"/>
<path d="M169.515 46.2431V35.0128L170.21 35.7484H165.004V33.1493H177V35.7484H171.818L172.514 35.0128V46.2431H169.515Z" fill="white"/>
<path d="M4.80115 70.3895C4.07178 70.3895 3.41721 70.233 2.83746 69.9199C2.26705 69.5976 1.81821 69.1602 1.49092 68.6077C1.16364 68.046 1 67.4061 1 66.6878C1 65.9604 1.16364 65.3204 1.49092 64.768C1.81821 64.2155 2.26705 63.7827 2.83746 63.4696C3.41721 63.1565 4.07178 63 4.80115 63C5.42766 63 5.99339 63.1197 6.49834 63.3591C7.00329 63.5985 7.40071 63.9576 7.69059 64.4365L6.94719 64.9337C6.69471 64.5654 6.38146 64.2937 6.00742 64.1188C5.63338 63.9438 5.22662 63.8564 4.78712 63.8564C4.26347 63.8564 3.79125 63.9761 3.37046 64.2155C2.94967 64.4457 2.61771 64.7726 2.37459 65.1961C2.13146 65.6197 2.0099 66.1169 2.0099 66.6878C2.0099 67.2587 2.13146 67.756 2.37459 68.1796C2.61771 68.6031 2.94967 68.9346 3.37046 69.174C3.79125 69.4042 4.26347 69.5193 4.78712 69.5193C5.22662 69.5193 5.63338 69.4319 6.00742 69.2569C6.38146 69.082 6.69471 68.8149 6.94719 68.4558L7.69059 68.953C7.40071 69.4227 7.00329 69.7818 6.49834 70.0304C5.99339 70.2698 5.42766 70.3895 4.80115 70.3895Z" fill="white"/>
<path d="M10.8845 70.3204V63.663L11.137 63.9254H8.0933V63.0691H14.6717V63.9254H11.6279L11.8804 63.663V70.3204H10.8845Z" fill="white"/>
<path d="M19.9127 70.3895C19.2769 70.3895 18.7018 70.2468 18.1875 69.9613C17.6732 69.6667 17.2617 69.2477 16.9532 68.7044C16.6539 68.1519 16.5043 67.4797 16.5043 66.6878C16.5043 65.8959 16.6539 65.2284 16.9532 64.6851C17.2524 64.1326 17.6591 63.7136 18.1734 63.4282C18.6877 63.1427 19.2675 63 19.9127 63C20.614 63 21.2406 63.1565 21.7923 63.4696C22.3533 63.7735 22.7928 64.2063 23.1107 64.768C23.4287 65.3204 23.5876 65.9604 23.5876 66.6878C23.5876 67.4245 23.4287 68.0691 23.1107 68.6215C22.7928 69.174 22.3533 69.6068 21.7923 69.9199C21.2406 70.233 20.614 70.3895 19.9127 70.3895ZM16.1116 73V63.0691H17.0654V65.2514L16.9672 66.7017L17.1074 68.1657V73H16.1116ZM19.8426 69.5193C20.3662 69.5193 20.8338 69.4042 21.2452 69.174C21.6567 68.9346 21.984 68.6031 22.2271 68.1796C22.4702 67.7468 22.5918 67.2495 22.5918 66.6878C22.5918 66.1262 22.4702 65.6335 22.2271 65.2099C21.984 64.7864 21.6567 64.4549 21.2452 64.2155C20.8338 63.9761 20.3662 63.8564 19.8426 63.8564C19.3189 63.8564 18.8467 63.9761 18.4259 64.2155C18.0145 64.4549 17.6872 64.7864 17.4441 65.2099C17.2103 65.6335 17.0934 66.1262 17.0934 66.6878C17.0934 67.2495 17.2103 67.7468 17.4441 68.1796C17.6872 68.6031 18.0145 68.9346 18.4259 69.174C18.8467 69.4042 19.3189 69.5193 19.8426 69.5193Z" fill="white"/>
<path d="M28.757 70.3895C28.0463 70.3895 27.4058 70.233 26.8354 69.9199C26.2743 69.5976 25.8302 69.1602 25.5029 68.6077C25.1756 68.046 25.012 67.4061 25.012 66.6878C25.012 65.9604 25.1756 65.3204 25.5029 64.768C25.8302 64.2155 26.2743 63.7827 26.8354 63.4696C27.3965 63.1565 28.037 63 28.757 63C29.4864 63 30.1316 63.1565 30.6927 63.4696C31.2631 63.7827 31.7072 64.2155 32.0252 64.768C32.3524 65.3204 32.5161 65.9604 32.5161 66.6878C32.5161 67.4061 32.3524 68.046 32.0252 68.6077C31.7072 69.1602 31.2631 69.5976 30.6927 69.9199C30.1223 70.233 29.477 70.3895 28.757 70.3895ZM28.757 69.5193C29.29 69.5193 29.7622 69.4042 30.1737 69.174C30.5851 68.9346 30.9077 68.6031 31.1415 68.1796C31.3846 67.7468 31.5062 67.2495 31.5062 66.6878C31.5062 66.1169 31.3846 65.6197 31.1415 65.1961C30.9077 64.7726 30.5851 64.4457 30.1737 64.2155C29.7622 63.9761 29.2947 63.8564 28.771 63.8564C28.2474 63.8564 27.7798 63.9761 27.3684 64.2155C26.957 64.4457 26.6297 64.7726 26.3866 65.1961C26.1434 65.6197 26.0219 66.1169 26.0219 66.6878C26.0219 67.2495 26.1434 67.7468 26.3866 68.1796C26.6297 68.6031 26.957 68.9346 27.3684 69.174C27.7798 69.4042 28.2427 69.5193 28.757 69.5193Z" fill="white"/>
<path d="M34.6445 70.3204V63.0691H35.6404V68.8287L40.5636 63.0691H41.4473V70.3204H40.4514V64.547L35.5422 70.3204H34.6445Z" fill="white"/>
<path d="M45.704 70.3204V63.663L45.9564 63.9254H42.9127V63.0691H49.4911V63.9254H46.4474L46.6998 63.663V70.3204H45.704Z" fill="white"/>
<path d="M53.7445 70.3895C52.9777 70.3895 52.3044 70.233 51.7247 69.9199C51.1449 69.5976 50.6914 69.1602 50.3641 68.6077C50.0368 68.046 49.8732 67.4061 49.8732 66.6878C49.8732 65.9696 50.0275 65.3343 50.3361 64.7818C50.654 64.2293 51.0841 63.7965 51.6265 63.4834C52.1782 63.1611 52.7954 63 53.478 63C54.1699 63 54.7824 63.1565 55.3154 63.4696C55.8578 63.7735 56.2833 64.2063 56.5918 64.768C56.9004 65.3204 57.0547 65.9604 57.0547 66.6878C57.0547 66.7339 57.05 66.7845 57.0407 66.8398C57.0407 66.8858 57.0407 66.9365 57.0407 66.9917H50.6306V66.2597H56.5077L56.1149 66.5497C56.1149 66.0249 55.9981 65.5599 55.7643 65.1547C55.5399 64.7403 55.2313 64.418 54.8385 64.1878C54.4458 63.9576 53.9923 63.8425 53.478 63.8425C52.973 63.8425 52.5195 63.9576 52.1174 64.1878C51.7153 64.418 51.4021 64.7403 51.1777 65.1547C50.9532 65.5691 50.841 66.0433 50.841 66.5773V66.7293C50.841 67.2818 50.9626 67.7698 51.2057 68.1934C51.4582 68.6077 51.8042 68.9346 52.2437 69.174C52.6925 69.4042 53.2021 69.5193 53.7725 69.5193C54.2214 69.5193 54.6375 69.4411 55.0209 69.2845C55.4136 69.128 55.7503 68.8886 56.0308 68.5663L56.5918 69.2017C56.2646 69.5884 55.8531 69.8831 55.3575 70.0856C54.8713 70.2882 54.3336 70.3895 53.7445 70.3895Z" fill="white"/>
<path d="M57.7619 70.3066L57.8321 69.4641C57.8975 69.4733 57.9583 69.4871 58.0144 69.5055C58.0799 69.5147 58.136 69.5193 58.1827 69.5193C58.482 69.5193 58.7204 69.4088 58.8981 69.1878C59.0851 68.9669 59.2254 68.6722 59.3189 68.3039C59.4124 67.9355 59.4778 67.5212 59.5152 67.0608C59.5526 66.5912 59.5854 66.1215 59.6134 65.6519L59.7397 63.0691H65.1398V70.3204H64.1439V63.6354L64.3964 63.9254H60.3849L60.6233 63.6215L60.5111 65.721C60.4831 66.3471 60.4316 66.9457 60.3568 67.5166C60.2914 68.0875 60.1838 68.5893 60.0342 69.0221C59.894 69.4549 59.6976 69.7956 59.4451 70.0442C59.1926 70.2836 58.87 70.4033 58.4773 70.4033C58.3651 70.4033 58.2482 70.3941 58.1266 70.3757C58.0144 70.3573 57.8929 70.3343 57.7619 70.3066Z" fill="white"/>
<path d="M71.1408 65.6243C72.0666 65.6335 72.7679 65.8361 73.2448 66.232C73.731 66.628 73.9741 67.1989 73.9741 67.9448C73.9741 68.7182 73.7123 69.3122 73.1887 69.7265C72.6744 70.1409 71.9263 70.3435 70.9444 70.3343L67.9708 70.3204V63.0691H68.9667V65.5967L71.1408 65.6243ZM70.8883 69.5884C71.571 69.5976 72.0853 69.4641 72.4312 69.1878C72.7866 68.9024 72.9642 68.488 72.9642 67.9448C72.9642 67.4015 72.7913 67.0055 72.4453 66.7569C72.0993 66.4991 71.5803 66.3656 70.8883 66.3564L68.9667 66.3287V69.5608L70.8883 69.5884Z" fill="white"/>
<path d="M75.8744 70.3204V63.0691H76.8703V66.2735H81.513V63.0691H82.5089V70.3204H81.513V67.116H76.8703V70.3204H75.8744Z" fill="white"/>
<path d="M89.9121 70.3204V68.7182L89.87 68.4558V65.7762C89.87 65.1593 89.6923 64.6851 89.337 64.3536C88.991 64.0221 88.472 63.8564 87.7801 63.8564C87.3032 63.8564 86.8496 63.9346 86.4195 64.0912C85.9893 64.2477 85.6247 64.4549 85.3254 64.7127L84.8766 63.9807C85.2506 63.6676 85.6995 63.4282 86.2231 63.2624C86.7468 63.0875 87.2985 63 87.8782 63C88.832 63 89.5661 63.2348 90.0804 63.7044C90.604 64.1648 90.8659 64.8692 90.8659 65.8177V70.3204H89.9121ZM87.3733 70.3895C86.8216 70.3895 86.34 70.302 85.9286 70.1271C85.5265 69.9429 85.2179 69.6943 85.0028 69.3812C84.7878 69.0589 84.6802 68.6906 84.6802 68.2762C84.6802 67.8987 84.7691 67.558 84.9467 67.2541C85.1337 66.9411 85.433 66.6924 85.8444 66.5083C86.2652 66.3149 86.8263 66.2182 87.5276 66.2182H90.0664V66.9503H87.5556C86.845 66.9503 86.3494 67.0746 86.0688 67.3232C85.7977 67.5718 85.6621 67.8803 85.6621 68.2486C85.6621 68.663 85.8257 68.9945 86.153 69.2431C86.4803 69.4917 86.9385 69.616 87.5276 69.616C88.0886 69.616 88.5702 69.4917 88.9723 69.2431C89.3837 68.9853 89.683 68.6169 89.87 68.1381L90.0944 68.8149C89.9074 69.2937 89.5801 69.6759 89.1126 69.9613C88.6544 70.2468 88.0746 70.3895 87.3733 70.3895Z" fill="white"/>
<path d="M98.2719 70.3204V67.7099L98.4542 67.9171H95.9576C95.0131 67.9171 94.2744 67.7145 93.7414 67.3094C93.2084 66.9042 92.9419 66.3149 92.9419 65.5414C92.9419 64.7127 93.2271 64.0958 93.7975 63.6906C94.3679 63.2762 95.13 63.0691 96.0838 63.0691H99.1836V70.3204H98.2719ZM92.8858 70.3204L94.9056 67.5304H95.9435L93.9658 70.3204H92.8858ZM98.2719 67.4199V63.6354L98.4542 63.9254H96.1118C95.4292 63.9254 94.8962 64.0543 94.5128 64.3122C94.1388 64.57 93.9518 64.989 93.9518 65.5691C93.9518 66.6464 94.6484 67.1851 96.0417 67.1851H98.4542L98.2719 67.4199Z" fill="white"/>
<path d="M111.094 70.3204L108.065 66.7293L108.892 66.2459L112.273 70.3204H111.094ZM105.694 70.3204V63.0691H106.69V70.3204H105.694ZM106.381 67.0884V66.2459H108.752V67.0884H106.381ZM108.976 66.7983L108.051 66.6602L110.982 63.0691H112.062L108.976 66.7983Z" fill="white"/>
<path d="M116.614 70.3895C115.903 70.3895 115.262 70.233 114.692 69.9199C114.131 69.5976 113.687 69.1602 113.36 68.6077C113.032 68.046 112.869 67.4061 112.869 66.6878C112.869 65.9604 113.032 65.3204 113.36 64.768C113.687 64.2155 114.131 63.7827 114.692 63.4696C115.253 63.1565 115.894 63 116.614 63C117.343 63 117.988 63.1565 118.549 63.4696C119.12 63.7827 119.564 64.2155 119.882 64.768C120.209 65.3204 120.373 65.9604 120.373 66.6878C120.373 67.4061 120.209 68.046 119.882 68.6077C119.564 69.1602 119.12 69.5976 118.549 69.9199C117.979 70.233 117.334 70.3895 116.614 70.3895ZM116.614 69.5193C117.147 69.5193 117.619 69.4042 118.03 69.174C118.442 68.9346 118.764 68.6031 118.998 68.1796C119.241 67.7468 119.363 67.2495 119.363 66.6878C119.363 66.1169 119.241 65.6197 118.998 65.1961C118.764 64.7726 118.442 64.4457 118.03 64.2155C117.619 63.9761 117.151 63.8564 116.628 63.8564C116.104 63.8564 115.637 63.9761 115.225 64.2155C114.814 64.4457 114.486 64.7726 114.243 65.1961C114 65.6197 113.879 66.1169 113.879 66.6878C113.879 67.2495 114 67.7468 114.243 68.1796C114.486 68.6031 114.814 68.9346 115.225 69.174C115.637 69.4042 116.099 69.5193 116.614 69.5193Z" fill="white"/>
<path d="M122.501 70.3204V63.0691H123.511L126.849 68.6354H126.429L129.823 63.0691H130.749V70.3204H129.837V64.1878L130.019 64.2707L126.849 69.4365H126.401L123.202 64.2155L123.413 64.174V70.3204H122.501Z" fill="white"/>
<path d="M133.583 70.3204V63.0691H140.203V70.3204H139.207V63.663L139.46 63.9254H134.326L134.578 63.663V70.3204H133.583Z" fill="white"/>
<path d="M147.607 70.3204V68.7182L147.564 68.4558V65.7762C147.564 65.1593 147.387 64.6851 147.031 64.3536C146.685 64.0221 146.166 63.8564 145.475 63.8564C144.998 63.8564 144.544 63.9346 144.114 64.0912C143.684 64.2477 143.319 64.4549 143.02 64.7127L142.571 63.9807C142.945 63.6676 143.394 63.4282 143.918 63.2624C144.441 63.0875 144.993 63 145.573 63C146.527 63 147.261 63.2348 147.775 63.7044C148.299 64.1648 148.56 64.8692 148.56 65.8177V70.3204H147.607ZM145.068 70.3895C144.516 70.3895 144.034 70.302 143.623 70.1271C143.221 69.9429 142.912 69.6943 142.697 69.3812C142.482 69.0589 142.375 68.6906 142.375 68.2762C142.375 67.8987 142.464 67.558 142.641 67.2541C142.828 66.9411 143.127 66.6924 143.539 66.5083C143.96 66.3149 144.521 66.2182 145.222 66.2182H147.761V66.9503H145.25C144.539 66.9503 144.044 67.0746 143.763 67.3232C143.492 67.5718 143.357 67.8803 143.357 68.2486C143.357 68.663 143.52 68.9945 143.847 69.2431C144.175 69.4917 144.633 69.616 145.222 69.616C145.783 69.616 146.265 69.4917 146.667 69.2431C147.078 68.9853 147.377 68.6169 147.564 68.1381L147.789 68.8149C147.602 69.2937 147.275 69.6759 146.807 69.9613C146.349 70.2468 145.769 70.3895 145.068 70.3895Z" fill="white"/>
<path d="M151.211 70.3204V63.0691H152.207V66.2735H156.85V63.0691H157.846V70.3204H156.85V67.116H152.207V70.3204H151.211Z" fill="white"/>
<path d="M160.677 70.3204V63.0691H161.672V68.8287L166.596 63.0691H167.479V70.3204H166.483V64.547L161.574 70.3204H160.677Z" fill="white"/>
<path d="M175.088 70.3204V67.7099L175.271 67.9171H172.774C171.829 67.9171 171.091 67.7145 170.558 67.3094C170.025 66.9042 169.758 66.3149 169.758 65.5414C169.758 64.7127 170.043 64.0958 170.614 63.6906C171.184 63.2762 171.946 63.0691 172.9 63.0691H176V70.3204H175.088ZM169.702 70.3204L171.722 67.5304H172.76L170.782 70.3204H169.702ZM175.088 67.4199V63.6354L175.271 63.9254H172.928C172.246 63.9254 171.713 64.0543 171.329 64.3122C170.955 64.57 170.768 64.989 170.768 65.5691C170.768 66.6464 171.465 67.1851 172.858 67.1851H175.271L175.088 67.4199Z" fill="white"/>
</svg>
