<?xml version="1.0" encoding="utf-8"?><svg viewBox="0 0 259 38" xmlns="http://www.w3.org/2000/svg" xmlns:xlink="http://www.w3.org/1999/xlink"><style>:root>svg{display:none}:root>svg:target{display:block}</style><svg viewBox="0 0 259 24" id="icon-arrow-long" xmlns="http://www.w3.org/2000/svg"><path d="M258.061 13.06a1.502 1.502 0 000-2.12l-9.546-9.547a1.5 1.5 0 00-2.122 2.122L254.879 12l-8.486 8.485a1.501 1.501 0 002.122 2.122l9.546-9.546zM0 13.5h257v-3H0v3z"/></svg><svg viewBox="0 0 46 38" id="icon-folder" xmlns="http://www.w3.org/2000/svg"><path d="M5 0C2.25 0 0 2.25 0 5v28a5 5 0 005 5h36a5 5 0 005-5V5c0-2.75-2.25-5-5-5H5zm0 2h36c1.669 0 3 1.332 3 3v2.03A4.948 4.948 0 0041 6H5c-1.128 0-2.16.393-3 1.03V5c0-1.668 1.332-3 3-3zm0 6h36c1.669 0 3 1.332 3 3v2.03A4.948 4.948 0 0041 12H5c-1.128 0-2.16.393-3 1.03V11c0-1.668 1.332-3 3-3zm0 6h36c1.669 0 3 1.332 3 3v2H33.615a5.727 5.727 0 00-5.12 3.164l-.374.748C27.151 24.852 25.17 26 23 26c-2.169 0-4.15-1.149-5.12-3.088l-.372-.748A5.727 5.727 0 0012.385 19H2v-2c0-1.668 1.332-3 3-3zm-3 7h10.385c1.42 0 2.697.79 3.332 2.06l.373.747C17.384 26.393 20.032 28 23 28c2.967 0 5.614-1.606 6.91-4.193l.375-.748A3.704 3.704 0 0133.615 21H44v12c0 1.654-1.346 3-3 3H5c-1.654 0-3-1.346-3-3V21z"/></svg><svg viewBox="0 0 38 38" id="icon-home" xmlns="http://www.w3.org/2000/svg"><path d="M18.994 0a.826.826 0 00-.384.098L.436 9.845a.826.826 0 00-.436.73v3.717a.826.826 0 001.22.726l.432-.234v22.39a.826.826 0 00.826.826h33.044a.826.826 0 00.826-.826v-22.39l.432.234a.826.826 0 001.22-.726v-3.717a.826.826 0 00-.436-.73L19.39.098A.826.826 0 0018.994 0zM19 1.764l17.348 9.304v1.836l-16.954-9.17a.826.826 0 00-.788 0l-16.954 9.17v-1.836L19 1.764zM19 5.4l15.696 8.49v22.458H3.304V13.89L19 5.4zm-.826 7.817v1.735c-2.844.3-4.606 1.984-4.606 4.429 0 6.229 9.26 3.302 9.26 7.6 0 1.66-1.556 2.768-3.828 2.768s-3.773-1.265-3.896-2.778h-1.932c.012 2.479 1.976 4.241 5.002 4.486v1.587h1.652V31.44c3.133-.282 4.957-1.965 4.957-4.617 0-6.137-9.273-3.673-9.273-7.556 0-1.412 1.253-2.587 3.49-2.587s3.523 1.265 3.569 2.677h1.92c-.079-2.426-1.909-4.149-4.663-4.414v-1.727h-1.652z"/></svg><svg viewBox="0 0 30 30" id="icon-house" xmlns="http://www.w3.org/2000/svg"><path d="M15 0L0 6.654v4.233l.637-.283.272-.12v15.829h2.74a2.3 2.3 0 00-.467 1.383C3.182 28.963 4.205 30 5.455 30c1.25 0 2.272-1.037 2.272-2.304a2.3 2.3 0 00-.468-1.383h2.3a2.3 2.3 0 00-.468 1.383c0 1.267 1.023 2.304 2.273 2.304 1.25 0 2.272-1.037 2.272-2.304 0-.52-.178-.996-.467-1.383h3.195V30h.909V26.313h6.363V30h.91v-3.687h4.545v-15.83l.909.404V6.654L15 0zm8.636 28.157a.464.464 0 00-.133-.326.45.45 0 00-.643 0 .464.464 0 000 .651.451.451 0 00.643 0 .464.464 0 00.133-.325zm-6.363 0c0 .122.048.239.133.325a.45.45 0 00.643 0 .464.464 0 000-.651.451.451 0 00-.643 0 .464.464 0 00-.133.326zM15 1.007l14.09 6.25v2.22L15 3.227.91 9.476v-2.22L15 1.007zm0 3.226l13.182 5.847v11.624a.452.452 0 00-.322.135.464.464 0 000 .652c.086.086.201.135.322.135v2.765h-3.636v-2.765c.12 0 .236-.049.32-.135a.464.464 0 000-.652.452.452 0 00-.32-.135v-7.835h-8.182v7.835a.452.452 0 00-.322.135.464.464 0 000 .652c.085.086.201.135.322.135v2.765H1.818v-2.765c.12 0 .236-.049.322-.135a.464.464 0 000-.652.452.452 0 00-.322-.135V10.08L15 4.233zM3.636 13.869v5.53h8.182v-5.53H3.636zm.91.922h2.727v3.687H4.545V14.79zm3.636 0h2.727v3.687H8.182V14.79zm9.09 0h6.364v10.6h-6.363v-10.6zm4.774 5.07a.677.677 0 00-.483.202.696.696 0 000 .978.677.677 0 00.965 0 .697.697 0 000-.978.677.677 0 00-.482-.203zm-18.41 1.843a.452.452 0 00-.321.135.464.464 0 000 .652.452.452 0 00.643 0 .464.464 0 000-.652.452.452 0 00-.322-.135zm1.819 0a.452.452 0 00-.322.135.464.464 0 000 .652.452.452 0 00.643 0 .464.464 0 000-.652.452.452 0 00-.321-.135zm1.818 0a.452.452 0 00-.322.135.464.464 0 000 .652.452.452 0 00.643 0 .464.464 0 000-.652.452.452 0 00-.321-.135zm1.818 0a.452.452 0 00-.321.135.464.464 0 000 .652.452.452 0 00.642 0 .464.464 0 000-.652.452.452 0 00-.321-.135zm1.818 0a.451.451 0 00-.321.135.464.464 0 000 .652.451.451 0 00.643 0 .464.464 0 000-.652.452.452 0 00-.322-.135zm1.818 0a.451.451 0 00-.321.135.464.464 0 000 .652.451.451 0 00.643 0 .464.464 0 000-.652.452.452 0 00-.322-.135zm1.819 0a.452.452 0 00-.322.135.464.464 0 000 .652.452.452 0 00.776-.326.464.464 0 00-.133-.326.452.452 0 00-.322-.135zm11.818 0a.452.452 0 00-.322.135.464.464 0 000 .652.452.452 0 00.643 0 .464.464 0 000-.652.451.451 0 00-.321-.135zm-20.91 4.609c.76 0 1.364.614 1.364 1.383s-.605 1.382-1.363 1.382a1.366 1.366 0 01-1.364-1.382c0-.77.605-1.383 1.364-1.383zm5.91 0c.758 0 1.363.614 1.363 1.383s-.605 1.382-1.363 1.382A1.366 1.366 0 0110 27.696c0-.77.605-1.383 1.364-1.383zm8.181 1.383a.451.451 0 00-.321.135.464.464 0 000 .651.451.451 0 00.643 0 .464.464 0 000-.651.451.451 0 00-.322-.135zm1.819 0a.451.451 0 00-.322.135.464.464 0 000 .651.451.451 0 00.643 0 .464.464 0 00-.321-.786z"/></svg><svg viewBox="0 0 58 38" id="icon-letter" xmlns="http://www.w3.org/2000/svg"><path d="M1.025 0C.424.114-.01.648 0 1.267v35.466C0 37.431.567 38 1.261 38h55.478c.695 0 1.261-.569 1.261-1.267V1.267C58 .569 57.434 0 56.74 0H1.024zm1.497 2.533h52.956v32.934H2.522V2.533zM29 7.442l-.59.316-2.286 1.188-2.483.356-.67.119-.275.554-1.182 2.335-1.813 1.782-.433.475.079.633.433 2.533-.433 2.534-.08.633.434.475 1.813 1.781.551 1.069-4.413 6.096 2.798.237 1.537 2.375 3.23-6.53.907.118 2.285 1.187.591.317.591-.317 2.285-1.187.907-.119 3.23 6.531 1.537-2.375 2.798-.237-4.413-6.096.551-1.069 1.813-1.781.433-.475-.078-.633-.434-2.534.434-2.533.078-.633-.433-.475-1.813-1.782-1.182-2.335-.275-.554-.67-.119-2.483-.356-2.285-1.188-.59-.316zm0 2.85l1.891.99.158.078.236.04 2.05.317.945 1.9.118.198.158.118 1.497 1.505-.355 2.097-.039.198.04.198.354 2.098-1.497 1.504-.158.12-.118.197-.946 1.9-2.049.317-.236.04-.158.078-1.89.99-1.892-.99-.158-.079-.236-.04-2.05-.316-.945-1.9-.118-.198-.158-.119-1.497-1.504.355-2.098.04-.198-.04-.198-.355-2.098 1.497-1.504.158-.118.118-.198.946-1.9 2.049-.317.236-.04.158-.079 1.891-.99z"/></svg><svg viewBox="0 0 30 21" id="icon-ruler" xmlns="http://www.w3.org/2000/svg"><path fill-rule="evenodd" clip-rule="evenodd" d="M.586 0h28.828c.324 0 .586.264.586.59v7.081c0 .326-.262.59-.586.59h-8.77a.588.588 0 01-.585-.59c0-.326.262-.59.585-.59h8.184v-5.9h-1.71v1.763c0 .326-.263.59-.587.59a.588.588 0 01-.586-.59V1.18h-1.71v.585c0 .326-.263.59-.587.59a.588.588 0 01-.585-.59V1.18h-1.711v1.764c0 .326-.263.59-.586.59a.588.588 0 01-.586-.59V1.18h-1.711v.585c0 .326-.263.59-.586.59a.588.588 0 01-.586-.59V1.18h-1.711v1.763c0 .326-.262.59-.586.59a.588.588 0 01-.586-.59V1.18h-1.71v.585c0 .326-.263.59-.587.59a.588.588 0 01-.586-.59V1.18h-1.71v1.764c0 .326-.263.59-.587.59a.588.588 0 01-.585-.59V1.18H6.938v.585c0 .326-.263.59-.586.59a.588.588 0 01-.586-.59V1.18H4.055v1.764a.59.59 0 01-.056.25L7.86 7.08h7.668c.324 0 .586.264.586.59 0 .326-.262.59-.586.59H8.203V20.41c0 .326-.262.59-.586.59H.586A.588.588 0 010 20.41V.59C0 .58 0 .573.002.566A.586.586 0 01.586 0zm2.297 2.069V1.18H2l.882.889zm4.148 17.75V7.917l-5.86-5.901V19.82h5.86zM27.748 4.507a.588.588 0 00-.414-.173.588.588 0 00-.414 1.008c.109.11.26.173.414.173a.588.588 0 00.586-.59.597.597 0 00-.172-.418zm-24.907.71a.588.588 0 01.586.59.588.588 0 01-.586.59.588.588 0 01-.586-.59.588.588 0 01.586-.59zM18.027 7.08a.588.588 0 01.415 1.007.586.586 0 01-1-.417.587.587 0 01.586-.59zM3.255 8.102a.586.586 0 00-1 .418.588.588 0 00.586.59.588.588 0 00.586-.59.596.596 0 00-.172-.418zm2.107-.172a.586.586 0 01.586.59.588.588 0 01-.586.59.588.588 0 01-.585-.59.586.586 0 01.586-.59zm-.45 4.31c0-.326.262-.59.586-.59.324 0 .586.264.586.59v1.22c0 .326-.262.59-.586.59a.588.588 0 01-.586-.59v-1.22zm-2.793.027c0-.326.262-.59.586-.59.324 0 .586.264.586.59v2.387c0 .326-.262.59-.586.59a.588.588 0 01-.586-.59v-2.387zm3.379 2.614a.588.588 0 00-.586.59v2.517c0 .326.262.59.586.59a.588.588 0 00.586-.59V15.47a.588.588 0 00-.586-.59zM3.12 16.688a.586.586 0 00-1 .418c0 .155.061.307.17.417.11.11.26.173.415.173a.588.588 0 00.415-1.008z"/></svg><svg viewBox="0 0 38 38" id="icon-time" xmlns="http://www.w3.org/2000/svg"><path d="M18.174 0v7.435a.827.827 0 101.652 0v-5.7C29.024 2.173 36.348 9.691 36.348 19c0 9.591-7.757 17.348-17.348 17.348S1.652 28.59 1.652 19A17.28 17.28 0 016.31 7.172.826.826 0 105.1 6.046 18.949 18.949 0 000 19c0 10.484 8.516 19 19 19s19-8.516 19-19C38 8.517 29.484 0 19 0h-.826zM9.913 9.913s6.367 9.871 7.335 10.84a2.478 2.478 0 103.504-3.505c-.968-.968-10.839-7.335-10.839-7.335z"/></svg><svg viewBox="0 0 30 30" id="icon-tools" xmlns="http://www.w3.org/2000/svg"><path d="M6 0a.76.76 0 00-.53.214l-.75.732a.723.723 0 00-.22.518v.731H2.25C1.016 2.195 0 3.187 0 4.391v2.191c0 1.204 1.016 2.195 2.25 2.195H4.5v9.514h-3v-2.195a.723.723 0 00-.22-.518.76.76 0 00-1.06 0 .723.723 0 00-.22.518V30h30V16.096a.723.723 0 00-.22-.518.76.76 0 00-1.06 0 .723.723 0 00-.22.518v2.195h-2.314l-.648-6.937c.337-.148.778-.3 1.556-.907 1.032-.806 2.156-2.096 2.156-3.865 0-1.342-.65-2.555-1.377-3.468a6.508 6.508 0 00-1.128-1.123c-.377-.286-.683-.532-1.245-.532a.76.76 0 00-.53.215.723.723 0 00-.22.517v4.025c-.21.152-.565.366-1.125.366s-.915-.214-1.125-.366V2.191a.723.723 0 00-.22-.517.76.76 0 00-.53-.215c-.563 0-.868.246-1.245.532a6.508 6.508 0 00-1.128 1.123C18.65 4.027 18 5.24 18 6.582c0 1.769 1.123 3.059 2.156 3.865.778.607 1.22.759 1.556.908l-.648 6.936H10.5V8.777h3.75c.82 0 1.5-.663 1.5-1.463v-1.83c0-.455-.218-.885-.589-1.162l-2.439-1.824-.001-.001a1.523 1.523 0 00-.913-.302H10.5v-.731c0-.194-.08-.38-.22-.518L9.53.214A.76.76 0 009 0H6zm.31 1.464h2.38l.31.303v.428H6v-.428l.31-.303zM21 3.572v3.01c0 .194.08.38.22.517 0 0 .947.947 2.405.947 1.458 0 2.405-.947 2.405-.947a.723.723 0 00.22-.517v-3.01c.15.148.29.253.44.44.585.735 1.06 1.716 1.06 2.57 0 1.159-.752 2.064-1.594 2.721-.842.658-1.684.991-1.684.991a.746.746 0 00-.361.296.718.718 0 00-.108.449l.675 7.252h-2.106l.675-7.252a.718.718 0 00-.108-.448.746.746 0 00-.36-.297s-.843-.333-1.685-.99C20.25 8.645 19.5 7.74 19.5 6.581c0-.854.475-1.835 1.06-2.57.15-.187.29-.292.44-.44zm-18.75.087h9.558l2.442 1.825v1.83h-12a.73.73 0 01-.75-.732V4.391a.73.73 0 01.75-.732zM6 8.777h3v9.514H6V8.777zM1.5 19.755h27v3.659h-27v-3.66zm0 5.122h27v3.66h-27v-3.66z"/></svg><svg viewBox="0 0 24 24" id="icon-whatsup" xmlns="http://www.w3.org/2000/svg"><path d="M12 0C5.373 0 0 5.373 0 12c0 2.251.632 4.35 1.71 6.15L.108 24l5.975-1.568A11.934 11.934 0 0012 24c6.627 0 12-5.373 12-12S18.627 0 12 0zM7.893 6.402c.195 0 .395 0 .568.008.214.005.447.02.67.514.265.586.842 2.056.916 2.205.074.149.126.324.023.52-.098.2-.149.32-.293.498-.149.171-.312.385-.447.515-.149.15-.303.313-.13.61.171.296.769 1.27 1.652 2.056 1.135 1.014 2.092 1.326 2.39 1.475.298.149.47.125.643-.075.177-.194.743-.864.943-1.162.195-.298.394-.246.664-.148.274.098 1.735.818 2.033.967.298.149.494.223.569.344.077.125.077.72-.17 1.414-.247.693-1.46 1.363-2.004 1.41-.55.05-1.061.246-3.568-.74-3.024-1.191-4.932-4.289-5.08-4.489-.15-.195-1.211-1.61-1.211-3.07 0-1.465.768-2.183 1.037-2.48.274-.299.595-.372.795-.372z"/></svg></svg>